<svg xmlns="http://www.w3.org/2000/svg" enable-background="new 0 0 64 64" viewBox="0 0 64 64" id="game-controller"><linearGradient id="a" x1="11.524" x2="60.773" y1="-3.552" y2="45.697" gradientTransform="matrix(1 0 0 -1 0 64)" gradientUnits="userSpaceOnUse"><stop offset="0" stop-color="#be53ff"></stop><stop offset="1" stop-color="#6be2dd"></stop></linearGradient><path fill="url(#a)" d="M61.9,39.1c-3.3-8-9.6-13.7-15.4-13.7H36.4v-1.8c0-1.2-1-2.2-2.2-2.2H33v-9.5c0-1.1,0.9-2,2-2s2,0.9,2,2v6.7c0,2.2,1.8,4,4,4s4-1.8,4-4V3.1c0-0.6-0.4-1-1-1s-1,0.4-1,1v15.6c0,1.1-0.9,2-2,2s-2-0.9-2-2V12c0-2.2-1.8-4-4-4s-4,1.8-4,4v9.5h-1.2c-1.2,0-2.2,1-2.2,2.2v1.8H17.4c-5.8,0-12.1,5.6-15.4,13.7c-1.9,4.6-2.5,9.5-1.8,13.6c0.8,4.3,2.9,7.4,6,8.6c5.2,2.1,12.6-2.1,17.2-9.7c0.8,0.5,1.7,0.8,2.7,0.8c2.2,0,4.1-1.4,4.8-3.5H33c0.7,2,2.6,3.5,4.8,3.5c1,0,1.9-0.3,2.7-0.8C44.3,58,50,62,54.8,62c1,0,2-0.2,2.9-0.5c3.1-1.3,5.3-4.3,6-8.6S63.8,43.8,61.9,39.1z M39.8,27.5L38.4,32H25.6l-1.4-4.5H39.8z M29.6,23.7c0-0.1,0.1-0.2,0.2-0.2h4.4c0.1,0,0.2,0.1,0.2,0.2v1.8h-4.9L29.6,23.7L29.6,23.7z M61.7,52.4c-0.6,3.6-2.3,6.1-4.8,7.1l0,0c-4.5,1.8-11.3-2.6-15.3-9.9c-0.4-0.7-1.2-0.6-1.6-0.2c-0.6,0.6-1.4,1-2.2,1c-1.5,0-2.8-1.1-3-2.6c-0.1-0.5-0.5-0.8-1-0.8h-3.6c-0.5,0-0.9,0.4-1,0.8c-0.2,1.5-1.5,2.6-3,2.6c-0.9,0-1.7-0.4-2.2-1c-0.4-0.4-1.2-0.5-1.7,0.2c-4,7.3-10.8,11.7-15.3,9.9c-2.5-1-4.2-3.5-4.8-7.1c-0.7-3.8-0.1-8.2,1.7-12.5c2.9-7.2,8.6-12.4,13.5-12.4h4.7l1.8,5.8c0.1,0.4,0.5,0.7,1,0.7h14.3c0.4,0,0.8-0.3,1-0.7l1.8-5.8h4.7c4.9,0,10.6,5.2,13.5,12.4C61.8,44.2,62.4,48.6,61.7,52.4z M18.7,41.4h-2.6v-2.6c0-1-0.8-1.7-1.7-1.7h-2.7c-1,0-1.8,0.8-1.8,1.7v2.6H7.3c-1,0-1.8,0.8-1.8,1.8v2.7c0,1,0.8,1.8,1.8,1.8h2.6v2.6c0,1,0.8,1.7,1.8,1.7h2.7c1,0,1.8-0.8,1.8-1.8v-2.6h2.6c1,0,1.8-0.8,1.8-1.8v-2.7C20.4,42.2,19.6,41.4,18.7,41.4z M18.4,45.6H15c-0.6,0-1,0.4-1,1v3.3h-2.2v-3.3c0-0.6-0.4-1-1-1H7.5v-2.2h3.4c0.6,0,1-0.4,1-1V39h2.2v3.3c0,0.6,0.4,1,1,1h3.4v2.3H18.4z M54.6,40c-1.8,0.5-2.9,2.3-2.4,4.1c0.4,1.8,2.6,3,4.2,2.5c1.8-0.5,2.9-2.3,2.4-4.1C58.3,40.6,56.5,39.5,54.6,40z M55.8,44.7c-0.7,0.2-1.7-0.4-1.7-1.1l0,0c-0.2-0.8,0.3-1.5,1-1.7c0.8,0,1.5,0.1,1.8,1.1C57,43.7,56.6,44.5,55.8,44.7z M47.1,44.5c-1.8,0.5-2.9,2.3-2.4,4.1l0,0c0.4,2,3,3,4.1,2.5c1.8-0.5,2.9-2.3,2.4-4.1C50.7,45.1,48.9,44,47.1,44.5z M48.2,49.1c-0.4,0.1-0.7,0-1-0.1c-0.3-0.2-0.5-0.5-0.6-0.8c-0.2-0.7,0.3-1.5,1-1.7s1.5,0.3,1.7,1C49.4,48.1,49,48.9,48.2,49.1z M47.1,35.5c-1.8,0.5-2.9,2.3-2.4,4.1c0.6,2.2,3.1,3,4.1,2.5l0,0c1.8-0.5,2.9-2.3,2.4-4.1C50.8,36.3,49.1,35.1,47.1,35.5z M48.3,40.2c-0.8,0.2-1.5-0.3-1.7-1c-0.2-0.8,0.3-1.5,1-1.7c1.2,0,1.7,0.6,1.7,1.1C49.5,39.2,49,40,48.3,40.2z M54.6,48.9c-1.5,0.3-3,2.1-2.5,4.2c0.4,1.5,1.8,2.6,3.3,2.6c0.3,0,0.6,0,0.8-0.1c1.5-0.3,3-2.1,2.5-4.2C58.3,49.5,56.4,48.4,54.6,48.9z M55.8,53.5c-0.8,0.2-1.5-0.3-1.7-1c-0.2-0.7,0.4-1.7,1.1-1.7c0.8,0,1.5,0.1,1.8,1.1C57,52,56.8,53.5,55.8,53.5z M30.5,38c0,0.6-0.4,1-1,1H27c-0.6,0-1-0.4-1-1s0.4-1,1-1h2.5C30,37,30.5,37.5,30.5,38z M37,39h-2.5c-0.6,0-1-0.4-1-1s0.4-1,1-1H37c0.6,0,1,0.4,1,1S37.6,39,37,39z M25.4,42.1c-1.8,0-3.3,1.5-3.3,3.2s1.5,3.2,3.3,3.2s3.2-1.5,3.2-3.2S27.1,42.1,25.4,42.1z M25.4,46.6c-0.7,0-1.3-0.6-1.3-1.2s0.6-1.2,1.3-1.2c0.7,0,1.2,0.6,1.2,1.2S26,46.6,25.4,46.6z M38.6,42.1c-1.8,0-3.2,1.5-3.2,3.2s1.5,3.2,3.2,3.2c1.8,0,3.3-1.5,3.3-3.2S40.4,42.1,38.6,42.1z M38.6,46.6c-0.7,0-1.2-0.6-1.2-1.2s0.6-1.2,1.2-1.2c0.7,0,1.3,0.6,1.3,1.2S39.3,46.6,38.6,46.6z"></path></svg>